<svg width="535" height="721" viewBox="0 0 535 721" fill="none" xmlns="http://www.w3.org/2000/svg">
<path d="M65.92 626.441V642.911H208.38V626.441H65.92Z" fill="#A15842"/>
<path d="M231.85 711.921L196.56 500.171H218.14C220.453 500.171 222.671 499.253 224.306 497.617C225.941 495.982 226.86 493.764 226.86 491.451C226.86 489.139 225.941 486.921 224.306 485.285C222.671 483.65 220.453 482.731 218.14 482.731H56.33C54.0173 482.731 51.7993 483.65 50.164 485.285C48.5287 486.921 47.61 489.139 47.61 491.451C47.61 493.764 48.5287 495.982 50.164 497.617C51.7993 499.253 54.0173 500.171 56.33 500.171H77.74L42.45 711.921C42.2758 712.97 42.3319 714.043 42.6145 715.068C42.8971 716.092 43.3994 717.043 44.0865 717.854C44.7735 718.664 45.6289 719.316 46.5931 719.763C47.5573 720.21 48.6073 720.441 49.67 720.441C51.3405 720.443 52.9612 719.872 54.2621 718.824C55.563 717.776 56.4658 716.314 56.82 714.681L103.58 500.171H170.72L217.47 714.681C217.828 716.314 218.733 717.775 220.035 718.823C221.338 719.87 222.959 720.441 224.63 720.441C225.693 720.441 226.743 720.21 227.707 719.763C228.671 719.316 229.526 718.664 230.214 717.854C230.901 717.043 231.403 716.092 231.685 715.068C231.968 714.043 232.024 712.97 231.85 711.921Z" fill="#A15842"/>
<path d="M218.14 500.171C220.453 500.171 222.671 499.253 224.306 497.617C225.941 495.982 226.86 493.764 226.86 491.451C226.86 489.139 225.941 486.921 224.306 485.285C222.671 483.65 220.453 482.731 218.14 482.731H56.33C54.0173 482.731 51.7993 483.65 50.164 485.285C48.5287 486.921 47.61 489.139 47.61 491.451C47.61 493.764 48.5287 495.982 50.164 497.617C51.7993 499.253 54.0173 500.171 56.33 500.171H77.74V500.441H103.56L103.62 500.171H170.76L170.82 500.441H196.64V500.171H218.14Z" fill="#A15842"/>
<path d="M227.73 626.161H330.73C332.01 604.291 336.58 575.281 340.37 536.091C343.74 501.341 346.64 472.171 346.45 448.091C346.13 407.951 243.45 456.531 243.45 456.531C243.45 465.301 245.22 473.721 245.27 481.881C245.39 503.081 234.65 521.121 226.98 546.691C215.35 585.461 225.04 626.161 225.04 626.161H227.73Z" fill="#4897DF"/>
<path d="M336.22 709.501H246.05C244.798 709.9 243.73 710.733 243.039 711.849C242.347 712.966 242.077 714.293 242.277 715.591C242.477 716.89 243.135 718.074 244.131 718.93C245.127 719.786 246.396 720.258 247.71 720.261L380.4 720.441C381.57 707.541 374.24 697.831 353.56 683.441C341.76 693.671 336.22 709.501 336.22 709.501Z" fill="#3EC1F3"/>
<path d="M348.91 680.311C344.627 677.542 340.927 673.962 338.02 669.771C331.02 659.501 329.54 645.671 330.69 626.161H241.43C241.603 640.748 242.654 655.311 244.58 669.771C246.86 686.141 249.94 697.401 252.41 709.241H247.72C247.153 709.241 246.59 709.328 246.05 709.501H336.22C336.22 709.501 341.76 693.671 353.56 683.501C352.08 682.455 350.53 681.391 348.91 680.311Z" fill="#A15842"/>
<path d="M331.77 608.641C326.25 597.653 322.487 585.866 320.62 573.711C314.09 528.341 317.96 505.081 299.55 484.711H245.68" stroke="#30242A" stroke-width="4" stroke-linecap="round" stroke-linejoin="round"/>
<path d="M365.36 630.031L365.46 630.271L444.98 593.031C438.79 574.511 432.32 549.871 421.69 517.621C411.73 487.441 405.14 464.891 398.9 447.441C390.173 453.727 379.412 456.524 368.729 455.283C358.046 454.042 348.212 448.852 341.159 440.733C334.106 432.614 330.342 422.151 330.607 411.4C330.872 400.648 335.146 390.383 342.59 382.621C300.14 363.441 149.37 350.931 149.37 350.931L64.08 338.331C59.58 345.771 55.75 357.561 53.67 371.331H83.47V403.201C83.4542 409.645 80.8845 415.821 76.324 420.373C71.7635 424.926 65.5842 427.486 59.14 427.491H57.44C57.04 427.491 56.64 427.491 56.25 427.491C64.39 457.491 85.33 482.761 128.07 482.761H300.57C318.98 503.111 315.11 526.371 321.64 571.761C326.98 608.891 352.29 636.261 352.29 636.261L365.36 630.031Z" fill="#4897DF"/>
<path d="M486.5 672.681L407.3 708.601C405.959 709.539 405.019 710.946 404.667 712.543C404.315 714.141 404.577 715.813 405.401 717.227C406.224 718.641 407.549 719.693 409.112 720.176C410.675 720.658 412.363 720.535 413.84 719.831L534.02 663.831C529.31 650.831 517.2 645.831 488.51 640.831L487.28 640.601C484.903 651.138 484.638 662.041 486.5 672.681Z" fill="#3EC1F3"/>
<path d="M487.28 640.561C479.02 638.981 472.54 636.231 467.19 632.071C457.33 624.391 451.29 611.891 444.98 593.071L365.46 630.311C372.2 645.801 381.66 662.091 390.67 676.311C398.54 688.691 406.05 699.481 411.1 706.711L408.23 708.101C407.904 708.26 407.593 708.448 407.3 708.661L486.5 672.741C484.624 662.069 484.889 651.13 487.28 640.561Z" fill="#A15842"/>
<path d="M373.72 455.591C382.763 455.597 391.576 452.744 398.9 447.441C386.49 412.561 375.73 398.031 343.19 382.891L342.59 382.621C336.74 388.721 332.812 396.405 331.295 404.718C329.777 413.032 330.736 421.608 334.053 429.381C337.37 437.154 342.898 443.781 349.951 448.437C357.003 453.094 365.269 455.574 373.72 455.571V455.591Z" fill="#3F6D8C"/>
<path d="M59.14 427.491C65.5963 427.491 71.7883 424.927 76.3545 420.363C80.9207 415.799 83.4873 409.608 83.49 403.151V371.281H53.69C51.06 388.571 51.21 408.911 56.25 427.461C56.64 427.461 57.04 427.461 57.44 427.461L59.14 427.491Z" fill="#3F6D8C"/>
<path d="M299.1 485.151H328.17" stroke="#30242A" stroke-width="4" stroke-linecap="round" stroke-linejoin="round"/>
<path d="M434.16 165.311C434.16 165.311 381.83 105.231 320 83.4413" stroke="#30242A" stroke-width="4" stroke-linecap="round" stroke-linejoin="round"/>
<path d="M262 106.571C260.1 101.981 266.44 94.7813 277 88.7013C262.7 85.1413 252.54 78.5113 253.56 72.9413C254.58 67.3713 266.42 64.7513 281.06 66.4713C273.36 57.0713 269.97 48.0913 273.37 44.4713C277.7 39.8413 291.44 45.6813 304.05 57.4713C315.05 67.7713 321.55 79.2313 320.17 85.0613C319.4 91.0013 309.27 99.4213 295.35 105.181C279.34 111.821 264.43 112.441 262 106.571Z" fill="#FF7511"/>
<mask id="mask0_404_143" style="mask-type:luminance" maskUnits="userSpaceOnUse" x="253" y="42" width="68" height="69">
<path d="M262 106.571C260.1 101.981 266.44 94.7813 277 88.7013C262.7 85.1413 252.54 78.5113 253.56 72.9413C254.58 67.3713 266.42 64.7513 281.06 66.4713C273.36 57.0713 269.97 48.0913 273.37 44.4713C277.7 39.8413 291.44 45.6813 304.05 57.4713C315.05 67.7713 321.55 79.2313 320.17 85.0613C319.4 91.0013 309.27 99.4213 295.35 105.181C279.34 111.821 264.43 112.441 262 106.571Z" fill="white"/>
</mask>
<g mask="url(#mask0_404_143)">
<path d="M320.69 103.721C330.775 103.721 338.95 95.546 338.95 85.4613C338.95 75.3766 330.775 67.2013 320.69 67.2013C310.605 67.2013 302.43 75.3766 302.43 85.4613C302.43 95.546 310.605 103.721 320.69 103.721Z" fill="#30242A"/>
</g>
<path d="M357.163 120.979C362.18 119.116 359.9 100.511 352.07 79.4227C344.24 58.3348 333.825 42.7499 328.809 44.6127C323.792 46.4755 326.072 65.0807 333.902 86.1685C341.732 107.256 352.146 122.841 357.163 120.979Z" fill="#30242A"/>
<path d="M356.27 124.641C356.27 124.641 364.03 145.961 360.15 168.251" stroke="#30242A" stroke-width="4" stroke-linecap="round" stroke-linejoin="round"/>
<path d="M214.76 39.7213C198.22 58.3313 180.64 62.4413 180.64 62.4413C169.27 50.0413 148.64 50.0413 145.49 67.6113C142.06 87.0813 166.14 92.4413 166.14 92.4413C166.14 92.4413 172.21 117.561 162.9 129.971C154.68 140.971 144.12 142.781 122.48 145.201C150.68 192.851 179.48 189.091 189.07 189.091C212.07 189.091 218.55 162.401 220.36 148.641C215.123 146.815 209.78 145.309 204.36 144.131L201.26 125.531C201.26 125.531 215.73 130.691 228.14 123.461C240.55 116.231 243.65 102.781 239.51 82.1113C237.06 69.8613 237.15 54.7113 235.05 41.1713C226.86 42.5613 214.76 39.7213 214.76 39.7213Z" fill="#A15842"/>
<path d="M386.8 143.541C382.41 125.971 348.04 116.441 348.04 116.441C348.04 116.441 350.1 77.0012 341.25 75.7412C334.47 74.7412 327.68 91.2513 321.87 123.231C315.37 158.971 318.96 224.981 318.96 224.981C318.96 224.981 311.77 218.451 301.57 209.361C300.551 211.422 298.987 213.163 297.048 214.398C295.108 215.632 292.868 216.311 290.57 216.361C292.02 218.199 292.929 220.406 293.193 222.733C293.458 225.059 293.068 227.413 292.067 229.53C291.066 231.647 289.495 233.443 287.529 234.715C285.563 235.987 283.281 236.685 280.94 236.731C282.39 238.569 283.299 240.776 283.563 243.103C283.828 245.429 283.438 247.783 282.437 249.9C281.436 252.017 279.865 253.813 277.899 255.085C275.933 256.357 273.651 257.055 271.31 257.101C272.832 259.031 273.755 261.365 273.966 263.813C274.177 266.262 273.665 268.719 272.495 270.88C271.325 273.042 269.548 274.813 267.382 275.975C265.217 277.138 262.758 277.64 260.31 277.421C281.54 291.241 310.4 307.361 329.63 307.361C430.41 307.321 389.71 155.171 386.8 143.541Z" fill="#A15842"/>
<path d="M272.77 270.231C273.77 268.114 274.16 265.761 273.897 263.435C273.633 261.108 272.727 258.901 271.28 257.061C273.621 257.015 275.903 256.317 277.869 255.045C279.835 253.773 281.406 251.977 282.407 249.86C283.408 247.743 283.798 245.389 283.533 243.063C283.269 240.736 282.36 238.53 280.91 236.691C283.251 236.646 285.533 235.947 287.499 234.675C289.465 233.403 291.036 231.607 292.037 229.49C293.038 227.373 293.428 225.019 293.163 222.693C292.899 220.366 291.99 218.16 290.54 216.321C292.838 216.271 295.078 215.592 297.018 214.358C298.957 213.124 300.521 211.382 301.54 209.321C283.96 193.661 257.45 170.441 243.34 160.011C236.51 154.961 227.81 151.221 220.34 148.641C218.58 162.441 212.14 189.091 189.14 189.091C179.59 189.091 150.75 192.851 122.55 145.201L113.49 146.201C82.29 149.671 68.09 166.461 59.73 186.521C54.56 198.931 50.42 221.671 50.42 221.671C47.2125 242.52 45.5612 263.578 45.48 284.671L86.05 322.221L194.97 324.911C203.69 312.051 219.69 288.301 224.97 279.191C231.75 267.561 232.72 257.871 232.72 257.871C232.72 257.871 244.36 266.971 260.31 277.361C262.866 277.585 265.43 277.023 267.657 275.748C269.884 274.474 271.668 272.549 272.77 270.231Z" fill="#FF7511"/>
<path d="M226.14 16.9713C213.74 1.47127 179.62 -8.86875 152.74 10.7713C125.86 30.4113 127.93 62.4613 128.96 74.8713C128.96 74.8713 100.02 65.5613 79.3401 87.2713C73.3551 93.4779 68.9964 101.067 66.6517 109.365C64.307 117.662 64.0488 126.41 65.9001 134.831C65.9001 134.831 27.8201 133.761 20.4101 168.951C16.2001 188.951 24.0601 202.261 32.7801 210.501C37.8944 215.3 43.8691 219.09 50.3901 221.671C50.3901 221.671 54.5301 198.931 59.7001 186.521C68.0601 166.461 82.2601 149.671 113.46 146.201L122.52 145.201C144.16 142.781 154.72 140.941 162.94 129.971C172.24 117.561 166.14 92.4413 166.14 92.4413C166.14 92.4413 142.03 87.0813 145.46 67.6313C148.57 50.0613 169.24 50.0613 180.61 62.4613C180.61 62.4613 198.19 58.3313 214.73 39.7213C214.73 39.7213 226.83 42.5613 235.08 41.1713C233.67 31.8513 231.19 23.3013 226.14 16.9713Z" fill="#070505"/>
<path d="M388.95 157.351C386.02 156.001 384.27 152.601 384.77 146.101C384.77 146.101 378.71 153.701 372.26 150.321C365.81 146.941 368.39 139.661 368.39 139.661C368.39 139.661 362.57 143.541 357.73 138.661C353.34 134.271 356.73 127.031 356.73 127.031C356.73 127.031 350.29 129.661 348.01 125.091C345.14 119.371 348.63 113.381 352.41 108.791" stroke="#30242A" stroke-width="8" stroke-linecap="round" stroke-linejoin="round"/>
<path d="M64.0601 135.671C65.1557 140.852 67.131 145.807 69.9001 150.321" stroke="black" stroke-width="4" stroke-miterlimit="10" stroke-linecap="round"/>
<path d="M317.02 226.231L319.45 256.441" stroke="#30242A" stroke-width="4" stroke-linecap="round" stroke-linejoin="round"/>
<path d="M229.32 224.441C235.65 235.841 235.57 249.521 234.75 257.631" stroke="#30242A" stroke-width="4" stroke-linecap="round" stroke-linejoin="round"/>
<path d="M172.14 256.441L141.13 257.411" stroke="#30242A" stroke-width="4" stroke-linecap="round" stroke-linejoin="round"/>
<path d="M200.73 127.441C196.396 125.74 192.169 123.78 188.07 121.571" stroke="#30242A" stroke-width="4" stroke-linecap="round" stroke-linejoin="round"/>
<path d="M208.48 156.141L206.79 145.431" stroke="#30242A" stroke-width="4" stroke-linecap="round" stroke-linejoin="round"/>
<path d="M126.87 75.2614L129.02 93.1414" stroke="black" stroke-width="4" stroke-miterlimit="10" stroke-linecap="round"/>
<path d="M229.32 96.5413C227.13 97.9613 219.87 98.4313 216.39 92.1013" stroke="#30242A" stroke-width="4" stroke-linecap="round" stroke-linejoin="round"/>
<path d="M171.17 76.1813L161.48 71.3413" stroke="#30242A" stroke-width="4" stroke-linecap="round" stroke-linejoin="round"/>
<path d="M215.91 71.8912C214.36 74.0012 207.05 78.0912 201.55 73.4212" stroke="#30242A" stroke-width="4" stroke-linecap="round" stroke-linejoin="round"/>
<path d="M239.46 68.8413C238.303 69.0873 237.108 69.1026 235.945 68.8864C234.781 68.6702 233.672 68.2267 232.68 67.5813" stroke="#30242A" stroke-width="4" stroke-linecap="round" stroke-linejoin="round"/>
<path d="M226.35 72.4413C227.46 74.9513 228.53 77.7213 228.3 78.7813C227.959 80.0705 227.19 81.2057 226.12 82.0013" stroke="#30242A" stroke-width="4" stroke-linecap="round" stroke-linejoin="round"/>
<path d="M165.86 87.8913L152.63 100.371C151.914 101.047 151.383 101.894 151.087 102.834C150.792 103.773 150.742 104.772 150.942 105.736C151.143 106.699 151.587 107.596 152.233 108.339C152.878 109.082 153.704 109.648 154.63 109.981L170.27 115.531C171.2 115.86 172.198 115.945 173.17 115.777C174.141 115.609 175.054 115.195 175.819 114.574C176.585 113.953 177.178 113.145 177.543 112.229C177.907 111.313 178.03 110.319 177.9 109.341L175.49 91.3413C175.349 90.295 174.923 89.3076 174.259 88.4869C173.595 87.6662 172.718 87.0438 171.724 86.6877C170.73 86.3316 169.658 86.2556 168.623 86.4678C167.589 86.6801 166.633 87.1726 165.86 87.8913Z" fill="#F4E6D8"/>
<path d="M355.79 91.2112C355.79 91.2112 362.57 87.3312 368.39 89.2712C377.39 92.2712 376.07 100.651 376.07 100.651C376.07 100.651 388.69 96.1012 391.14 109.441C391.14 109.441 402.52 111.991 399.96 123.371C399.96 123.371 409.17 123.861 407.34 135.931C405.51 148.001 397.46 158.031 392.62 158.031C387.62 158.031 384.09 154.961 384.77 146.031C384.77 146.031 378.71 153.631 372.26 150.251C365.81 146.871 368.39 139.591 368.39 139.591C368.39 139.591 362.57 143.471 357.73 138.591C353.34 134.201 356.73 126.961 356.73 126.961C356.73 126.961 350.29 129.591 348.01 125.021C343.16 115.331 356.5 104.911 358.67 101.771L355.79 91.2112Z" fill="#A15842"/>
<path d="M352.91 130.491C359.57 124.381 370.91 112.851 376.29 100.751" stroke="#30242A" stroke-width="4" stroke-linecap="round" stroke-linejoin="round"/>
<path d="M365.14 144.441C376.208 135.029 385.241 123.46 391.69 110.441" stroke="#30242A" stroke-width="4" stroke-linecap="round" stroke-linejoin="round"/>
<path d="M382.27 151.621C385.27 147.961 395.76 134.811 400.96 124.401" stroke="#30242A" stroke-width="4" stroke-linecap="round" stroke-linejoin="round"/>
<path d="M380.39 374.191H212.55L250.7 253.661C251.828 250.113 254.056 247.015 257.063 244.818C260.069 242.621 263.696 241.438 267.42 241.441H409.25C412.006 241.44 414.723 242.089 417.181 243.334C419.639 244.58 421.769 246.388 423.398 248.611C425.026 250.834 426.108 253.409 426.555 256.128C427.002 258.848 426.802 261.634 425.97 264.261L394.42 363.931C393.472 366.908 391.602 369.507 389.08 371.351C386.558 373.196 383.514 374.19 380.39 374.191Z" fill="black"/>
<path d="M115.14 360.621C114.645 362.183 114.525 363.839 114.789 365.455C115.054 367.072 115.696 368.603 116.663 369.925C117.631 371.246 118.896 372.322 120.357 373.063C121.817 373.804 123.432 374.191 125.07 374.191H380.39C383.512 374.184 386.551 373.184 389.068 371.336C391.584 369.488 393.448 366.888 394.39 363.911L395.39 360.621H115.14Z" fill="black"/>
<path d="M354.68 297.441C350.78 292.101 333.05 306.201 331.75 307.371C331.07 306.201 321.85 292.101 315.08 297.441C309.21 302.071 322.08 322.741 325.55 328.011C325.694 328.172 325.869 328.3 326.066 328.388C326.262 328.475 326.475 328.521 326.69 328.521C326.905 328.521 327.118 328.475 327.314 328.388C327.511 328.3 327.687 328.172 327.83 328.011C334.14 322.691 358.07 302.021 354.68 297.441Z" fill="#FF7511"/>
<path d="M338.48 293.667C339.889 289.143 339.83 285.101 338.348 284.64C336.866 284.178 334.523 287.472 333.114 291.996C331.705 296.52 331.764 300.562 333.245 301.023C334.727 301.485 337.07 298.191 338.48 293.667Z" fill="#FF8A00"/>
<path d="M18.97 264.911C21.1485 265.751 23.5174 265.969 25.8127 265.542C28.108 265.115 30.2396 264.059 31.97 262.491C32.1752 264.826 33.0293 267.058 34.4358 268.933C35.8423 270.808 37.7451 272.253 39.9294 273.104C42.1137 273.955 44.4923 274.178 46.7967 273.748C49.1011 273.318 51.2394 272.252 52.97 270.671C53.1805 273.004 54.0379 275.231 55.4456 277.103C56.8533 278.974 58.7554 280.416 60.938 281.265C63.1205 282.114 65.4967 282.337 67.7991 281.909C70.1015 281.481 72.2387 280.418 73.97 278.841C74.1303 280.683 74.6949 282.466 75.6237 284.064C76.5524 285.662 77.8224 287.035 79.3429 288.086C80.8635 289.136 82.5972 289.838 84.4203 290.142C86.2435 290.445 88.1111 290.343 89.89 289.841L105.01 249.231C110.834 233.642 113.594 217.076 113.14 200.441L111.61 146.441C111.61 146.441 76.7201 149.341 56.3701 174.541C45.9301 187.471 25.4401 221.631 12.3101 258.771C13.6898 261.575 16.0641 263.763 18.97 264.911Z" fill="#FF7511"/>
<path d="M81.9601 289.441C79.77 288.598 77.8598 287.157 76.446 285.284C75.0321 283.411 74.171 281.179 73.9601 278.841C72.2287 280.418 70.0915 281.481 67.7891 281.909C65.4867 282.337 63.1105 282.114 60.928 281.265C58.7455 280.416 56.8433 278.974 55.4356 277.103C54.0279 275.231 53.1705 273.004 52.9601 270.671C51.2294 272.252 49.0911 273.318 46.7867 273.748C44.4823 274.178 42.1037 273.955 39.9194 273.104C37.7351 272.253 35.8323 270.808 34.4258 268.933C33.0193 267.058 32.1653 264.826 31.9601 262.491C30.5206 263.802 28.7964 264.761 26.9233 265.293C25.0502 265.824 23.0793 265.914 21.1658 265.554C19.2523 265.194 17.4484 264.396 15.896 263.22C14.3437 262.045 13.0854 260.526 12.2201 258.781C0.840055 290.971 -5.01995 325.411 6.00005 350.201C29.7201 403.591 100.91 384.801 117.71 379.861C134.51 374.921 167.15 358.111 188.9 361.081C210.65 364.051 235.36 374.921 239.32 361.081C239.32 361.081 252.63 360.741 248.44 348.081C248.44 348.081 255.13 347.251 256.12 342.311C258.12 332.421 234.37 323.531 234.37 323.531C234.37 323.531 253.16 326.531 257.11 322.531C262.11 317.531 257.25 309.461 226.56 302.021C192.85 293.861 148.36 298.801 82.1201 310.661L89.8701 289.831C87.2611 290.564 84.4843 290.427 81.9601 289.441Z" fill="#A15842"/>
<path d="M105.27 243.841L83.14 308.441" stroke="#30242A" stroke-width="4" stroke-linecap="round" stroke-linejoin="round"/>
<path d="M240.34 324.241C229.6 320.161 211.72 313.901 197.84 311.641" stroke="#30242A" stroke-width="4" stroke-linecap="round" stroke-linejoin="round"/>
<path d="M248.72 347.561C234.92 341.351 208.56 330.081 194.38 327.961" stroke="#30242A" stroke-width="4" stroke-linecap="round" stroke-linejoin="round"/>
<path d="M82.28 308.581C74.84 309.781 63.16 311.771 51.49 314.101" stroke="#30242A" stroke-width="4" stroke-linecap="round" stroke-linejoin="round"/>
<path d="M238.91 362.441C228.56 357.171 206.75 346.691 191.42 343.771" stroke="#30242A" stroke-width="4" stroke-linecap="round" stroke-linejoin="round"/>
</svg>
